#!OML:ASF H:\MichaelJackson\Top Level 1\Subject 1\Session 1\male.ASF
:FULLY-SPECIFIED
:DEGREES
408
root 7.51088 16.8875 15.9722 -438.454 86.3732 -90.2168
lowerback 8.10298 -2.98816 0.576281
upperback 4.40125 -3.77579 1.14689
thorax 0.0552229 -1.83167 1.15373
lowerneck -1.51926 -17.256 -9.22297
upperneck 11.5279 -24.4257 13.6772
head 6.59631 -11.6496 3.65676
rclavicle -5.56597e-014 4.77083e-015
rhumerus 65.1417 66.1787 35.6895
rradius 86.1962
rwrist 30.7256
rhand -7.40056 -5.7899
rfingers 7.12502
rthumb 18.4855 -34.9316
lclavicle -5.56597e-014 4.77083e-015
lhumerus -30.2726 -10.7246 92.3191
lradius 54.7515
lwrist 16.9125
lhand -20.8655 8.8769
lfingers 7.12502
lthumb 5.50417 38.7854
rfemur -33.5137 14.8361 23.7028
rtibia 41.1381
rfoot -11.1285 10.798
rtoes 23.4715
lfemur -47.4014 8.6221 -14.4746
ltibia 73.5901
lfoot 5.61216 -3.18873
ltoes 3.2672
409
root 7.40597 16.8572 16.0443 -451.081 86.2965 -102.657
lowerback 7.89593 -3.1815 0.575261
upperback 4.28599 -4.03922 1.20088
thorax 0.0581607 -1.96605 1.22185
lowerneck -1.54126 -17.2712 -9.22132
upperneck 11.6505 -24.4328 13.4903
head 6.61463 -11.6555 3.59668
rclavicle -2.50469e-014 -6.75868e-015
rhumerus 63.8409 65.3084 34.495
rradius 86.3295
rwrist 30.9278
rhand -7.35194 -5.65503
rfingers 7.12502
rthumb 18.5323 -34.7923
lclavicle -2.50469e-014 -6.75868e-015
lhumerus -30.5968 -10.6694 92.7171
lradius 54.0931
lwrist 16.4138
lhand -20.4634 8.65217
lfingers 7.12502
lthumb 5.89239 38.5502
rfemur -33.7699 15.0593 23.7627
rtibia 41.2679
rfoot -11.1606 10.1597
rtoes 24.5761
lfemur -46.7212 8.98251 -14.7338
ltibia 74.699
lfoot 5.68256 -4.13534
ltoes 3.59022
410
root 7.30348 16.8275 16.1156 -463.156 86.0355 -114.544
lowerback 7.67498 -3.38905 0.567015
upperback 4.15048 -4.3225 1.28471
thorax 0.0517864 -2.11101 1.32473
lowerneck -1.55754 -17.2895 -9.22602
upperneck 11.7979 -24.4421 13.2769
head 6.63745 -11.6632 3.52924
rclavicle 2.5842e-015 1.59028e-015
rhumerus 62.3866 64.505 33.124
rradius 86.4417
rwrist 31.1133
rhand -7.30771 -5.54541
rfingers 7.12502
rthumb 18.5749 -34.6786
lclavicle 2.5842e-015 1.59028e-015
lhumerus -30.9054 -10.5749 93.164
lradius 53.368
lwrist 15.8992
lhand -20.0925 8.33622
lfingers 7.12502
lthumb 6.25047 38.224
rfemur -34.015 15.2271 23.8331
rtibia 41.389
rfoot -11.1756 9.50816
rtoes 25.5869
lfemur -45.9406 9.34833 -14.9657
ltibia 75.7273
lfoot 5.80791 -5.10802
ltoes 4.08788
411
root 7.20294 16.7988 16.186 -473.674 85.604 -124.878
lowerback 7.444 -3.60911 0.549251
upperback 3.99324 -4.62336 1.39539
thorax 0.0330169 -2.26533 1.46043
lowerneck -1.57344 -17.311 -9.24028
upperneck 11.9793 -24.4549 13.042
head 6.66985 -11.6727 3.45519
rclavicle 2.34566e-014 -1.39149e-014
rhumerus 60.7579 63.7803 31.5507
rradius 86.5316
rwrist 31.3267
rhand -7.30949 -5.48308
rfingers 7.12502
rthumb 18.5731 -34.6164
lclavicle 2.34566e-014 -1.39149e-014
lhumerus -31.1998 -10.4542 93.652
lradius 52.5865
lwrist 15.3751
lhand -19.7638 7.98136
lfingers 7.12502
lthumb 6.56787 37.8595
rfemur -34.2553 15.3384 23.9181
rtibia 41.5025
rfoot -11.1705 8.84241
rtoes 26.4636
lfemur -45.0592 9.70191 -15.1526
ltibia 76.6524
lfoot 6.01412 -6.10874
ltoes 4.85924
412
root 7.10422 16.7709 16.2555 -482.266 85.0458 -133.284
lowerback 7.20963 -3.83488 0.513776
upperback 3.82011 -4.933 1.52343
thorax 0.00458378 -2.42447 1.62323
lowerneck -1.59655 -17.3413 -9.25972
upperneck 12.1975 -24.4809 12.7959
head 6.716 -11.6873 3.37479
rclavicle -7.55382e-015 -1.39149e-014
rhumerus 58.9077 63.1418 29.7285
rradius 86.6086
rwrist 31.5863
rhand -7.38125 -5.48256
rfingers 7.12502
rthumb 18.5041 -34.6225
lclavicle -7.55382e-015 -1.39149e-014
lhumerus -31.4723 -10.3024 94.1711
lradius 51.7608
lwrist 14.8236
lhand -19.4513 7.66909
lfingers 7.12502
lthumb 6.86948 37.5376
rfemur -34.4903 15.3952 24.0101
rtibia 41.6153
rfoot -11.1334 8.17939
rtoes 27.3392
lfemur -44.0597 10.0449 -15.3081
ltibia 77.4447
lfoot 6.28555 -7.20807
ltoes 5.52049
413
root 7.00703 16.7444 16.3239 -489.172 84.4099 -140.004
lowerback 6.97509 -4.06386 0.447996
upperback 3.63592 -5.24873 1.65731
thorax -0.029694 -2.58704 1.80805
lowerneck -1.62709 -17.3778 -9.28633
upperneck 12.4367 -24.5182 12.5634
head 6.77424 -11.7058 3.29593
rclavicle 1.35174e-014 -3.10104e-014
rhumerus 56.8168 62.588 27.633
rradius 86.6791
rwrist 31.8995
rhand -7.56921 -5.56145
rfingers 7.12502
rthumb 18.3233 -34.7184
lclavicle 1.35174e-014 -3.10104e-014
lhumerus -31.7168 -10.1251 94.7046
lradius 50.9101
lwrist 14.2455
lhand -19.1201 7.48459
lfingers 7.12502
lthumb 7.18922 37.3425
rfemur -34.7269 15.3876 24.0973
rtibia 41.7348
rfoot -11.0686 7.53274
rtoes 28.1394
lfemur -42.9398 10.3615 -15.4388
ltibia 78.0767
lfoot 6.65108 -8.45855
ltoes 6.13866
